<?xml version="1.0" encoding="UTF-8" standalone="no"?>
<svg width="232px" height="232px" viewBox="0 0 232 232" version="1.1" xmlns="http://www.w3.org/2000/svg" xmlns:xlink="http://www.w3.org/1999/xlink">
    <!-- Generator: Sketch 42 (36781) - http://www.bohemiancoding.com/sketch -->
    <title>15</title>
    <desc>Created with Sketch.</desc>
    <defs></defs>
    <g id="elmassets" stroke="none" stroke-width="1" fill="none" fill-rule="evenodd">
        <path d="M116,232 C51.934969,232 0,180.065031 0,116 C0,51.934969 51.934969,0 116,0 C180.065031,0 232,51.934969 232,116 C232,180.065031 180.065031,232 116,232 Z M79.201416,62.1679688 L107.280902,110.822881 L50.9615141,110.822881 L50.9615141,120.878662 L107.357666,120.878662 L79.2995605,169.673096 L87.9943848,174.633057 L116.130127,125.96582 L144.36377,174.77417 L152.861328,169.703125 L124.782694,120.967329 L181.134236,120.967329 L181.134236,110.858643 L124.777344,110.858643 L152.79126,62.0385742 L144.279541,56.986084 L116.025391,105.828857 L87.8681641,57.1757813 L79.201416,62.1679688 Z M35,126 C40.5228475,126 45,121.522847 45,116 C45,110.477153 40.5228475,106 35,106 C29.4771525,106 25,110.477153 25,116 C25,121.522847 29.4771525,126 35,126 Z M199,126 C204.522847,126 209,121.522847 209,116 C209,110.477153 204.522847,106 199,106 C193.477153,106 189,110.477153 189,116 C189,121.522847 193.477153,126 199,126 Z" id="15" fill="#A86228"></path>
    </g>
</svg>