<?xml version="1.0" encoding="UTF-8" standalone="no"?>
<svg width="232px" height="232px" viewBox="0 0 232 232" version="1.1" xmlns="http://www.w3.org/2000/svg" xmlns:xlink="http://www.w3.org/1999/xlink">
    <!-- Generator: Sketch 42 (36781) - http://www.bohemiancoding.com/sketch -->
    <title>66</title>
    <desc>Created with Sketch.</desc>
    <defs></defs>
    <g id="elmassets" stroke="none" stroke-width="1" fill="none" fill-rule="evenodd">
        <path d="M116,232 C51.934969,232 0,180.065031 0,116 C0,51.934969 51.934969,0 116,0 C180.065031,0 232,51.934969 232,116 C232,180.065031 180.065031,232 116,232 Z M116,181 C124.836556,181 132,173.836556 132,165 C132,156.163444 124.836556,149 116,149 C107.163444,149 100,156.163444 100,165 C100,173.836556 107.163444,181 116,181 Z M116,80 C124.836556,80 132,72.836556 132,64 C132,55.163444 124.836556,48 116,48 C107.163444,48 100,55.163444 100,64 C100,72.836556 107.163444,80 116,80 Z M166,130 C174.836556,130 182,122.836556 182,114 C182,105.163444 174.836556,98 166,98 C157.163444,98 150,105.163444 150,114 C150,122.836556 157.163444,130 166,130 Z M66,130 C74.836556,130 82,122.836556 82,114 C82,105.163444 74.836556,98 66,98 C57.163444,98 50,105.163444 50,114 C50,122.836556 57.163444,130 66,130 Z" id="66" fill="#22F55E"></path>
    </g>
</svg>