<?xml version="1.0" encoding="UTF-8" standalone="no"?>
<svg width="232px" height="232px" viewBox="0 0 232 232" version="1.1" xmlns="http://www.w3.org/2000/svg" xmlns:xlink="http://www.w3.org/1999/xlink">
    <!-- Generator: Sketch 42 (36781) - http://www.bohemiancoding.com/sketch -->
    <title>131</title>
    <desc>Created with Sketch.</desc>
    <defs></defs>
    <g id="elmassets" stroke="none" stroke-width="1" fill="none" fill-rule="evenodd">
        <path d="M116,232 C51.934969,232 0,180.065031 0,116 C0,51.934969 51.934969,0 116,0 C180.065031,0 232,51.934969 232,116 C232,180.065031 180.065031,232 116,232 Z M119.5,164.150003 L128.21066,184.451972 L131.598764,162.621574 L145.084656,180.119466 L142.937318,158.132323 L160.351075,171.726681 L152.803219,150.964326 L173.05067,159.800967 L160.576556,141.567975 L182.38548,145.091661 L165.768903,130.533678 L187.768964,128.523001 L168.054004,118.554759 L188.862858,111.136059 L167.288278,106.383898 L185.598428,94.0233189 L163.519839,94.7858361 L178.180791,78.2600377 L156.985472,84.4893208 L167.076024,64.8366804 L148.095754,76.1413205 L152.98188,54.5966857 L137.409261,70.2663709 L136.783947,48.1834703 L125.597462,67.2336165 L119.5,46 L113.402538,67.2336165 L102.216053,48.1834703 L101.590739,70.2663709 L86.0181196,54.5966857 L90.9042455,76.1413205 L71.9239761,64.8366804 L82.0145282,84.4893208 L60.8192092,78.2600377 L75.4801609,94.7858361 L53.4015721,94.0233189 L71.711722,106.383898 L50.1371424,111.136059 L70.9459964,118.554759 L51.2310361,128.523001 L73.2310973,130.533678 L56.6145199,145.091661 L78.4234436,141.567975 L65.9493296,159.800967 L86.196781,150.964326 L78.648925,171.726681 L96.0626822,158.132323 L93.9153436,180.119466 L107.401236,162.621574 L110.78934,184.451972 L119.5,164.150003 Z" id="131" fill="#C2C2C2"></path>
    </g>
</svg>