<?xml version="1.0" encoding="UTF-8" standalone="no"?>
<svg width="232px" height="232px" viewBox="0 0 232 232" version="1.1" xmlns="http://www.w3.org/2000/svg" xmlns:xlink="http://www.w3.org/1999/xlink">
    <!-- Generator: Sketch 42 (36781) - http://www.bohemiancoding.com/sketch -->
    <title>74</title>
    <desc>Created with Sketch.</desc>
    <defs></defs>
    <g id="elmassets" stroke="none" stroke-width="1" fill="none" fill-rule="evenodd">
        <path d="M116,232 C51.934969,232 0,180.065031 0,116 C0,51.934969 51.934969,0 116,0 C180.065031,0 232,51.934969 232,116 C232,180.065031 180.065031,232 116,232 Z M132.160452,160.400476 L158.562183,162.448472 L158.823043,135.968713 L178.940038,118.748021 L160.400476,99.8395482 L162.448472,73.4378169 L135.968713,73.1769571 L118.748021,53.059962 L99.8395482,71.5995237 L73.4378169,69.5515278 L73.1769571,96.0312871 L53.059962,113.251979 L71.5995237,132.160452 L69.5515278,158.562183 L96.0312871,158.823043 L113.251979,178.940038 L132.160452,160.400476 Z" id="74" fill="#22DDF5"></path>
    </g>
</svg>